<?xml version="1.0" standalone="no"?><!DOCTYPE svg PUBLIC "-//W3C//DTD SVG 1.1//EN" "http://www.w3.org/Graphics/SVG/1.1/DTD/svg11.dtd"><svg t="1677633615086" class="icon" viewBox="0 0 1024 1024" version="1.1" xmlns="http://www.w3.org/2000/svg" p-id="1960" width="128" height="128" xmlns:xlink="http://www.w3.org/1999/xlink"><path d="M823.263659 17.391379l-1.831198 819.286056-612.260601 164.057343 1.831199-819.286057L823.263659 17.391379z" fill="#005DD6" p-id="1961"></path><path d="M209.17186 1000.734778l-32.501265-9.396148 1.831198-819.286057 32.501266 9.396148-1.831199 819.286057z" fill="#004FB6" p-id="1962"></path><path d="M211.003059 181.448721l-32.501266-9.396148L790.7724 8.005238l32.491259 9.386141-612.2606 164.057342z" fill="#0055C4" p-id="1963"></path><path d="M439.012244 638.417715l-32.501265-9.396148h0.240157l32.511272 9.396148h-0.240157" fill="#D5D5D5" p-id="1964"></path><path d="M439.262408 638.417715l-32.501265-9.396148h0.250163l32.501266 9.396148h-0.250164" fill="#D3D3D3" p-id="1965"></path><path d="M439.512572 638.417715l-32.501266-9.396148h0.220144l32.501266 9.396148h-0.220144" fill="#D0D0D0" p-id="1966"></path><path d="M439.732716 638.417715l-32.501266-9.396148h0.090059l32.501266 9.396148h-0.090059" fill="#CECECE" p-id="1967"></path><path d="M436.510608 832.184496l-32.501266-9.396148 0.420275-187.572728 32.501266 9.396147-0.420275 187.572729z" fill="#CCCCCC" p-id="1968"></path><path d="M335.674631 859.202173l-32.491259-9.396148 100.82597-27.017677 32.501266 9.396148-100.835977 27.017677z" fill="#DBDBDB" p-id="1969"></path><path d="M332.782739 865.3562L300.301486 855.960052a1.450949 1.450949 0 0 1-0.660432-0.410268l32.501266 9.396147a1.450949 1.450949 0 0 0 0.660432 0.410269" fill="#C4C4C4" p-id="1970"></path><path d="M332.122307 864.945931L299.631048 855.55979a2.371552 2.371552 0 0 1-0.630413-1.661087l32.501266 9.396148a2.371552 2.371552 0 0 0 0.630412 1.661087" fill="#C4C4C4" p-id="1971"></path><path d="M331.491894 863.284845l-32.501265-9.396148v-0.140092l32.501265 9.396148v0.140092" fill="#C7C7C7" p-id="1972"></path><path d="M436.930883 644.611767l-0.420275 187.572729-100.835977 27.017677 0.420275-187.572728 100.835977-27.017678z" fill="#EFEFEF" p-id="1973"></path><path d="M335.674631 859.202173l-32.491259-9.396148 0.420275-187.572728 32.491259 9.396148-0.420275 187.572728z" fill="#CCCCCC" p-id="1974"></path><path d="M336.094906 671.629445l-32.491259-9.396148 100.82597-27.017677 32.501266 9.396147-100.835977 27.017678z" fill="#DBDBDB" p-id="1975"></path><path d="M334.033557 666.586145l-32.491259-9.396148 104.978687-28.128404 32.491259 9.396148-104.978687 28.128404z" fill="#DBDBDB" p-id="1976"></path><path d="M331.491894 863.144753l-32.501265-9.396148 0.430281-193.166388 32.501266 9.396148-0.430282 193.166388z" fill="#CCCCCC" p-id="1977"></path><path d="M331.922176 669.978365l-32.501266-9.396148v-0.29019l32.501266 9.396148v0.29019" fill="#C7C7C7" p-id="1978"></path><path d="M331.932182 669.688175l-32.501265-9.396148v-0.350229l32.501265 9.396148v0.350229" fill="#C9C9C9" p-id="1979"></path><path d="M331.972208 669.347952l-32.501265-9.396148q0-0.160105 0.070046-0.320209l32.501265 9.396148q0 0.160105-0.070046 0.320209" fill="#CCCCCC" p-id="1980"></path><path d="M332.042254 669.027743l-32.501265-9.396148q0-0.150098 0.090059-0.310203l32.501265 9.396148q0 0.150098-0.090059 0.310203" fill="#CECECE" p-id="1981"></path><path d="M332.122307 668.71754l-32.501266-9.396148q0.050033-0.160105 0.120079-0.310203l32.501265 9.426167q-0.060039 0.150098-0.120078 0.310203" fill="#D0D0D0" p-id="1982"></path><path d="M332.242385 668.437356l-32.501265-9.396147q0.070046-0.170111 0.160104-0.340223l32.501266 9.396148q-0.090059 0.170111-0.160105 0.340222" fill="#D3D3D3" p-id="1983"></path><path d="M332.40249 668.077121l-32.501266-9.396148 0.160105-0.280183 0.070046-0.100066 32.501265 9.396148-0.070045 0.100065-0.160105 0.280184" fill="#D5D5D5" p-id="1984"></path><path d="M332.63264 667.686865l-32.501265-9.396147a3.232115 3.232115 0 0 1 0.420275-0.500328l32.501265 9.396148a3.232115 3.232115 0 0 0-0.420275 0.500327" fill="#D8D8D8" p-id="1985"></path><path d="M333.042909 667.186538l-32.501266-9.396148a2.641728 2.641728 0 0 1 0.410269-0.330216l32.501265 9.396148a2.641728 2.641728 0 0 0-0.410268 0.330216" fill="#DADADA" p-id="1986"></path><path d="M333.453177 666.856322L300.951912 657.430154a2.071355 2.071355 0 0 1 0.52034-0.250163l32.501266 9.396148a2.071355 2.071355 0 0 0-0.520341 0.250163" fill="#D8D8D8" p-id="1987"></path><path d="M333.973518 666.606158l-32.501266-9.396148h0.070046l32.501266 9.396148h-0.070046" fill="#D5D5D5" p-id="1988"></path><path d="M440.483207 638.878016a2.641728 2.641728 0 0 1 0.640419 1.841205l-0.430282 193.126362a3.88254 3.88254 0 0 1-0.640419 2.141401 2.631722 2.631722 0 0 1-1.470962 1.200785l-104.988694 28.168431a1.430936 1.430936 0 0 1-1.470962-0.410269 2.441598 2.441598 0 0 1-0.640419-1.791172l0.430281-193.126362a4.17273 4.17273 0 0 1 0.640419-2.191433 2.631722 2.631722 0 0 1 1.470963-1.200786L439.012244 638.417715a1.430936 1.430936 0 0 1 1.470963 0.460301z m-4.002619 193.30648l0.420275-187.572729-100.835977 27.017678-0.420275 187.572728 100.835977-27.017677" fill="#EFEFEF" p-id="1989"></path><path d="M668.642491 453.967029l-0.850557 376.706478-104.968681 28.128404 0.84055-376.696471 104.978688-28.138411z" fill="#EFA1BF" p-id="1990"></path><path d="M562.823253 858.801911l-32.501265-9.396147 0.84055-376.696472 32.501265 9.396148-0.84055 376.696471z" fill="#CC89A2" p-id="1991"></path><path d="M563.663803 482.10544l-32.501265-9.396148 104.978687-28.128404 32.501266 9.386141-104.978688 28.138411z" fill="#DB93AE" p-id="1992"></path><path d="M911.561432 311.083541l-1.16076 516.70808-104.978687 28.128405 1.16076-516.708081 104.978687-28.128404z" fill="#EFA1BF" p-id="1993"></path><path d="M805.421985 855.920026l-32.491259-9.396148 1.150753-516.708081 32.501266 9.396148-1.16076 516.708081z" fill="#CC89A2" p-id="1994"></path><path d="M806.582745 339.211945l-32.501266-9.396148 104.978687-28.128404 32.501266 9.396148-104.978687 28.128404z" fill="#DB93AE" p-id="1995"></path></svg>