<?xml version="1.0" standalone="no"?><!DOCTYPE svg PUBLIC "-//W3C//DTD SVG 1.1//EN" "http://www.w3.org/Graphics/SVG/1.1/DTD/svg11.dtd"><svg t="1677650659514" class="icon" viewBox="0 0 1024 1024" version="1.1" xmlns="http://www.w3.org/2000/svg" p-id="1723" xmlns:xlink="http://www.w3.org/1999/xlink" width="128" height="128"><path d="M893.4 848.4H130.3c-23.5 0-42.6-19.1-42.6-42.6v-563c0-23.5 19.1-42.6 42.6-42.6h763.1c23.5 0 42.6 19.1 42.6 42.6v562.9c0 23.6-19.1 42.7-42.6 42.7z" fill="#E5ECFF" p-id="1724"></path><path d="M827.8 705.4h-632c-20.6 0-37.3-16.7-37.3-37.3V418.6c0-20.6 16.7-37.3 37.3-37.3h632c20.6 0 37.3 16.7 37.3 37.3V668c0.1 20.7-16.6 37.4-37.3 37.4z" fill="#C7D8FF" p-id="1725"></path><path d="M933.1 238.3H90.5c-14.7 0-26.7-12-26.7-26.7v-3.8c0-14.7 12-26.7 26.7-26.7h842.6c14.7 0 26.7 12 26.7 26.7v3.8c0 14.8-11.9 26.7-26.7 26.7zM244.9 591h76.3v114.4h-76.3zM359.3 552.9h76.3v152.5h-76.3zM473.7 524.3H550v181.1h-76.3zM588.1 495.7h76.3v209.7h-76.3zM702.5 457.5h76.3v247.8h-76.3z" fill="#5B79FB" p-id="1726"></path><path d="M830 317.4m-19.1 0a19.1 19.1 0 1 0 38.2 0 19.1 19.1 0 1 0-38.2 0Z" fill="#FFFFFF" p-id="1727"></path><path d="M771.8 330.8H562.6c-8 0-14.6-6.5-14.6-14.6v-3.3c0-8 6.5-14.6 14.6-14.6h209.2c8 0 14.6 6.5 14.6 14.6v3.3c-0.1 8-6.6 14.6-14.6 14.6zM821.5 788.3H202.1c-8 0-14.6-6.5-14.6-14.6v-3.3c0-8 6.5-14.6 14.6-14.6h619.4c8 0 14.6 6.5 14.6 14.6v3.3c0 8.1-6.6 14.6-14.6 14.6z" fill="#FFFFFF" p-id="1728"></path><path d="M386 381.3c-90.4 12.9-129.2 77.5-142.1 142.1 32.3-45.2 77.5-65.9 142.1-65.9v53l90.4-90.4-90.4-90.5v51.7" fill="#FF7E71" p-id="1729"></path></svg>