<?xml version="1.0" standalone="no"?><!DOCTYPE svg PUBLIC "-//W3C//DTD SVG 1.1//EN" "http://www.w3.org/Graphics/SVG/1.1/DTD/svg11.dtd"><svg t="1677650642238" class="icon" viewBox="0 0 1024 1024" version="1.1" xmlns="http://www.w3.org/2000/svg" p-id="1566" xmlns:xlink="http://www.w3.org/1999/xlink" width="128" height="128"><path d="M926.1 686.7H825.4c-19.3 0-35-15.6-35-35V551c0-19.3 15.6-35 35-35h100.8c19.3 0 35 15.6 35 35v100.8c-0.1 19.3-15.8 34.9-35.1 34.9z" fill="#F7554D" p-id="1567"></path><path d="M798.4 789.1H129.5c-35.6 0-64.5-28.9-64.5-64.5V298.9c0-35.6 28.9-64.5 64.5-64.5h668.9c35.6 0 64.5 28.9 64.5 64.5v425.7c0 35.7-28.9 64.5-64.5 64.5z" fill="#5B79FB" p-id="1568"></path><path d="M162.4 492.8h532.2v38H162.4z" fill="#E5ECFF" p-id="1569"></path><path d="M162.4 599.2h258.5v38H162.4z" fill="#A4BEFF" p-id="1570"></path><path d="M961.1 550.3c0-19.2-15.6-34.8-34.8-34.8h-170v-31.9c0-8.3-9-13.5-16.2-9.4l-181 104.5c-7.2 4.2-7.2 14.6 0 18.7L740 701.8c7.2 4.2 16.2-1 16.2-9.4v-31.9H961V550.3z" fill="#FF7E71" p-id="1571"></path><path d="M162.4 345.4h196.3v85.3H162.4z" fill="#E5ECFF" p-id="1572"></path></svg>